<svg width="132" height="30" viewBox="0 0 132 30" fill="none" xmlns="http://www.w3.org/2000/svg">
<path d="M132 29.85C88 29.85 44 29.85 0 29.85C0 19.95 0 10.05 0 0.149994C44 0.149994 88 0.149994 132 0.149994C132 10.05 132 19.95 132 29.85ZM23.2708 7.04105C23.0691 7.00964 22.9615 6.98451 22.8606 6.98451C18.3423 6.98451 13.824 6.9531 9.31235 6.99079C6.71699 7.01592 5.43949 8.021 4.85452 10.4143C4.22922 13.0087 3.6577 15.6093 3.07274 18.21C2.55501 20.5216 2.01711 22.8207 1.55318 25.1387C1.23044 26.7531 2.13142 27.7645 3.87958 27.8838C4.12164 27.9027 4.36369 27.9152 4.60575 27.9152C9.12408 27.9152 13.6357 27.9089 18.154 27.9278C18.6583 27.9278 18.8331 27.7896 18.934 27.3247C19.4853 24.7681 20.077 22.224 20.6553 19.6736C20.9444 18.4047 21.2268 17.1358 21.5361 15.7789C18.5306 15.7789 15.6394 15.7726 12.7414 15.7915C12.6002 15.7915 12.3582 15.9297 12.3246 16.0428C12.0691 17.0541 11.8606 18.0718 11.6119 19.1711C13.1314 19.1711 14.5434 19.1711 16.0361 19.1711C15.6663 20.7792 15.3099 22.3119 14.9468 23.8824C12.5465 23.8824 10.2133 23.8886 7.8802 23.8824C6.9187 23.8761 6.79768 23.7253 6.99939 22.8459C7.78606 19.3909 8.56601 15.9297 9.35269 12.4747C9.61491 11.3126 9.78301 11.187 11.0941 11.187C14.5636 11.187 18.033 11.187 21.4957 11.187C21.7848 11.187 22.0672 11.187 22.3631 11.187C22.6791 9.74219 22.9749 8.40418 23.2708 7.04105ZM62.0465 5.76586C60.6479 11.9094 59.2628 17.9838 57.8778 24.0834C55.437 24.0834 53.077 24.0834 50.7103 24.0834C50.0312 24.0834 49.9101 23.7065 50.0312 23.1788C50.4951 21.1435 50.9927 19.1145 51.4095 17.073C51.5709 16.3003 51.9676 16.0302 52.7812 16.049C54.3411 16.0805 55.901 16.0742 57.4609 16.0428C57.6895 16.0365 58.0795 15.8732 58.1198 15.7161C58.4291 14.6042 58.6644 13.4798 58.9334 12.3114C58.6308 12.2926 58.4224 12.2674 58.2139 12.2674C55.8741 12.2674 53.5342 12.2549 51.1944 12.2674C48.8814 12.28 47.651 13.1909 47.1669 15.3078C46.4273 18.4926 45.7213 21.6838 45.022 24.8811C44.511 27.2305 45.1229 27.9215 47.698 27.9215C52.0281 27.9278 56.3582 27.8964 60.6883 27.9466C61.5489 27.9592 61.8044 27.6954 61.9658 26.9541C63.2097 21.332 64.5006 15.7161 65.7781 10.1002C66.1009 8.66801 66.4169 7.23578 66.7396 5.76586C65.1192 5.76586 63.6198 5.76586 62.0465 5.76586ZM104.608 24.2279C102.026 24.2279 99.585 24.2279 97.1442 24.2279C95.7457 24.2279 94.3472 24.2404 92.9487 24.2216C92.088 24.209 91.9199 24.0268 92.088 23.273C92.6259 20.8923 93.184 18.5115 93.7286 16.137C93.8631 15.5402 94.206 15.2136 94.8918 15.2136C97.2048 15.2199 99.5177 15.2199 101.831 15.2136C102.53 15.2136 102.738 15.5402 102.611 16.1307C102.496 16.6458 102.328 17.1546 102.254 17.676C102.174 18.2351 101.918 18.4173 101.306 18.4047C99.4236 18.367 97.541 18.3796 95.6583 18.411C95.4095 18.4173 95.0061 18.6057 94.9523 18.7816C94.7372 19.4726 94.6296 20.1887 94.4615 20.999C94.8313 20.999 95.1204 20.999 95.4095 20.999C98.3411 20.999 101.273 20.999 104.204 20.999C106.026 20.999 106.033 20.999 106.416 19.3344C106.813 17.6195 107.223 15.9046 107.559 14.1771C107.882 12.5564 107.196 11.6393 105.63 11.6267C101.326 11.5953 97.0232 11.6016 92.72 11.6267C91.2139 11.633 90.1583 12.3428 89.6877 13.6871C89.4053 14.4912 89.2103 15.3329 89.022 16.1621C88.3295 19.2276 87.6033 22.2931 86.9982 25.3774C86.6687 27.0735 87.3612 27.8273 89.1901 27.8398C93.8967 27.8838 98.6033 27.865 103.31 27.8461C103.505 27.8461 103.834 27.6577 103.875 27.5069C104.144 26.4641 104.352 25.4025 104.608 24.2279ZM36.5972 24.1776C33.9615 24.1776 31.3863 24.1839 28.8111 24.1713C28.3068 24.1713 28.1724 23.8949 28.28 23.4615C28.4144 22.9275 28.5691 22.3873 28.6498 21.8471C28.7506 21.1687 29.1137 20.9237 29.8399 20.9362C31.588 20.9739 33.3362 20.9614 35.0844 20.9362C35.3197 20.9299 35.7164 20.7917 35.7634 20.641C35.9921 19.8809 36.1265 19.102 36.3081 18.2728C33.2286 18.2728 30.2433 18.2414 27.2647 18.2853C25.9132 18.3042 24.9988 18.9889 24.6424 20.239C24.4542 20.8923 24.2793 21.5456 24.1314 22.2114C23.8625 23.4615 23.5397 24.7115 23.3851 25.9805C23.2372 27.1928 23.8894 27.8022 25.187 27.8901C25.4291 27.9089 25.6712 27.9152 25.9132 27.9152C30.4853 27.9152 35.0575 27.9089 39.6229 27.9278C40.1877 27.9278 40.3961 27.7833 40.5171 27.2494C41.371 23.3421 42.272 19.4475 43.1663 15.5528C43.7445 13.0338 43.0856 12.2612 40.3423 12.2612C36.1736 12.2612 32.0049 12.2612 27.8429 12.2612C27.5807 12.2612 27.3185 12.2612 27.0024 12.2612C26.7469 13.417 26.4982 14.51 26.2359 15.6973C28.2934 15.6973 30.25 15.6973 32.2066 15.6973C33.9548 15.6973 35.7029 15.6973 37.4511 15.6973C37.989 15.6973 38.5 15.7978 38.3588 16.4385C37.794 19.0015 37.1956 21.5707 36.5972 24.1776ZM79.9719 10.2259C79.9383 10.4834 79.9315 10.6091 79.9046 10.7347C79.0238 14.6105 78.1565 18.4864 77.2622 22.3559C77.0403 23.3107 76.7042 23.518 75.6082 23.518C72.7304 23.5243 69.8594 23.5117 66.9817 23.5369C66.7329 23.5369 66.3026 23.719 66.2555 23.8886C65.9126 25.1764 65.6504 26.4767 65.3612 27.7582C65.4688 27.8022 65.5159 27.8461 65.563 27.8461C69.698 27.8461 73.8399 27.8775 77.9749 27.8273C79.8777 27.8022 81.1284 26.8348 81.7469 25.1575C81.8949 24.7555 82.0092 24.3409 82.11 23.9263C82.7488 21.131 83.3875 18.3356 84.0196 15.5402C84.7255 12.4056 85.4315 9.26478 86.1442 6.09251C83.0379 6.09251 79.9853 6.09251 76.8857 6.09251C76.5764 7.45564 76.2738 8.79993 75.9511 10.2322C77.3295 10.2259 78.6137 10.2259 79.9719 10.2259ZM114.31 7.07246C113.732 9.61656 113.153 12.1355 112.589 14.6608C111.782 18.2665 110.955 21.8722 110.195 25.4905C109.892 26.9101 110.524 27.7331 112.051 27.8022C114.162 27.9027 116.28 27.8273 118.445 27.8273C118.694 26.7029 118.943 25.6035 119.211 24.3975C118.23 24.3975 117.322 24.4037 116.414 24.3975C115.332 24.3912 115.171 24.2153 115.392 23.2353C115.964 20.7101 116.562 18.1848 117.12 15.6533C117.221 15.1884 117.423 15.0377 117.921 15.0502C119.097 15.0817 120.274 15.0628 121.491 15.0628C121.746 13.9007 121.995 12.8014 122.257 11.6016C120.839 11.6016 119.501 11.6016 118.055 11.6016C118.405 10.0437 118.727 8.58007 119.064 7.07246C117.457 7.07246 115.91 7.07246 114.31 7.07246ZM127.34 3.90647C125.357 3.8939 123.784 5.3387 123.79 7.17296C123.79 8.96954 125.344 10.4143 127.273 10.4269C129.243 10.4395 130.844 8.96954 130.837 7.1604C130.83 5.37011 129.27 3.91903 127.34 3.90647Z" fill="white"/>
<path d="M23.271 7.04106C22.9751 8.40419 22.6793 9.7422 22.3633 11.1807C22.0674 11.1807 21.7783 11.1807 21.4959 11.1807C18.0265 11.1807 14.5571 11.1807 11.0943 11.1807C9.78322 11.1807 9.61512 11.3063 9.3529 12.4685C8.56622 15.9234 7.78627 19.3846 6.9996 22.8396C6.79789 23.719 6.92564 23.8698 7.8804 23.8761C10.2135 23.8824 12.5534 23.8761 14.947 23.8761C15.3101 22.3057 15.6597 20.7729 16.0363 19.1648C14.5436 19.1648 13.1316 19.1648 11.6121 19.1648C11.8541 18.0655 12.0693 17.0478 12.3248 16.0365C12.3517 15.9234 12.5937 15.7852 12.7417 15.7852C15.6396 15.7727 18.5375 15.7727 21.5363 15.7727C21.227 17.1295 20.9446 18.3984 20.6555 19.6673C20.0772 22.2177 19.4855 24.7618 18.9342 27.3185C18.8266 27.7896 18.6518 27.9278 18.1475 27.9278C13.6292 27.909 9.11757 27.9152 4.59923 27.9152C4.35718 27.9152 4.11512 27.8964 3.87307 27.8838C2.1249 27.7645 1.22392 26.7531 1.54666 25.1387C2.01732 22.8208 2.55522 20.5216 3.07295 18.2162C3.65791 15.6156 4.2227 13.015 4.85473 10.4206C5.43297 8.02729 6.71048 7.02221 9.31256 6.99708C13.8309 6.95939 18.3425 6.98452 22.8608 6.9908C22.9684 6.98452 23.0693 7.01593 23.271 7.04106Z" fill="black"/>
<path d="M62.0461 5.76587C63.6194 5.76587 65.1188 5.76587 66.7325 5.76587C66.4098 7.22951 66.0938 8.66803 65.771 10.1003C64.5003 15.7161 63.2026 21.332 61.9587 26.9541C61.7973 27.6954 61.5418 27.9529 60.6812 27.9466C56.3511 27.8964 52.021 27.9278 47.691 27.9215C45.1158 27.9152 44.4972 27.2305 45.0149 24.8812C45.7142 21.69 46.4269 18.4989 47.1598 15.3078C47.6506 13.1909 48.8743 12.28 51.1873 12.2675C53.5272 12.2549 55.867 12.2612 58.2069 12.2675C58.4153 12.2675 58.6237 12.2926 58.9263 12.3114C58.6573 13.4798 58.422 14.6043 58.1127 15.7161C58.0724 15.8732 57.6824 16.0365 57.4538 16.0428C55.8939 16.0742 54.334 16.0805 52.7741 16.0491C51.9605 16.0302 51.5638 16.3066 51.4025 17.073C50.9856 19.1145 50.488 21.1498 50.0241 23.1788C49.9031 23.7128 50.0241 24.0834 50.7032 24.0834C53.0632 24.0834 55.43 24.0834 57.8707 24.0834C59.2692 17.9775 60.6476 11.9031 62.0461 5.76587Z" fill="black"/>
<path d="M104.607 24.2278C104.352 25.4025 104.137 26.4641 103.868 27.5069C103.827 27.6577 103.498 27.8461 103.303 27.8461C98.5964 27.865 93.8898 27.8775 89.1832 27.8398C87.3544 27.821 86.6618 27.0672 86.9913 25.3774C87.5964 22.2931 88.3226 19.2339 89.0151 16.1621C89.2034 15.3266 89.3984 14.4912 89.6808 13.6871C90.1514 12.3428 91.2138 11.6393 92.7132 11.6267C97.0163 11.6016 101.32 11.5953 105.623 11.6267C107.189 11.6393 107.875 12.5564 107.552 14.1771C107.209 15.9046 106.806 17.6195 106.409 19.3344C106.026 20.999 106.013 20.999 104.197 20.999C101.266 20.999 98.3342 20.999 95.4027 20.999C95.1135 20.999 94.8244 20.999 94.4546 20.999C94.6227 20.1887 94.7303 19.4726 94.9454 18.7816C94.9992 18.6057 95.4094 18.411 95.6514 18.411C97.5341 18.3796 99.4167 18.367 101.299 18.4047C101.911 18.4173 102.173 18.2288 102.247 17.676C102.321 17.1546 102.489 16.6458 102.604 16.1307C102.732 15.5465 102.523 15.2136 101.824 15.2136C99.5108 15.2199 97.1979 15.2199 94.8849 15.2136C94.1991 15.2136 93.8562 15.5402 93.7217 16.137C93.1771 18.5178 92.619 20.8923 92.0811 23.273C91.913 24.0268 92.0811 24.209 92.9418 24.2216C94.3403 24.2404 95.7388 24.2278 97.1374 24.2278C99.5848 24.2278 102.032 24.2278 104.607 24.2278Z" fill="#F15429"/>
<path d="M36.597 24.1776C37.1954 21.5707 37.7938 19.0077 38.3586 16.4322C38.4998 15.7915 37.9888 15.691 37.4509 15.691C35.7027 15.691 33.9546 15.691 32.2064 15.691C30.2498 15.691 28.2932 15.691 26.2357 15.691C26.498 14.51 26.7468 13.4107 27.0023 12.2549C27.3115 12.2549 27.5738 12.2549 27.8427 12.2549C32.0114 12.2549 36.1801 12.2549 40.3421 12.2549C43.0921 12.2549 43.7443 13.0275 43.1661 15.5465C42.2718 19.4412 41.3776 23.3421 40.5169 27.2431C40.4026 27.777 40.1875 27.9215 39.6227 27.9215C35.0505 27.9027 30.4784 27.9089 25.913 27.9089C25.671 27.9089 25.4289 27.9027 25.1868 27.8838C23.8892 27.7896 23.237 27.1803 23.3849 25.9742C23.5395 24.7053 23.8623 23.4615 24.1312 22.2051C24.2724 21.5456 24.454 20.886 24.6422 20.2327C24.9986 18.9826 25.913 18.2979 27.2645 18.2791C30.2431 18.2351 33.2284 18.2665 36.3079 18.2665C36.1263 19.0957 35.9919 19.8746 35.7633 20.6347C35.7162 20.7855 35.3195 20.9237 35.0842 20.9299C33.336 20.9551 31.5878 20.9676 29.8397 20.9299C29.1068 20.9174 28.7437 21.1624 28.6496 21.8408C28.5689 22.3873 28.4142 22.9213 28.2798 23.4552C28.1655 23.8886 28.2999 24.165 28.8109 24.165C31.3861 24.1776 33.9613 24.1776 36.597 24.1776Z" fill="black"/>
<path d="M79.9719 10.2259C78.6069 10.2259 77.3294 10.2259 75.9443 10.2259C76.2671 8.79367 76.5697 7.45566 76.8789 6.08624C79.9786 6.08624 83.0311 6.08624 86.1375 6.08624C85.4248 9.25851 84.7188 12.3994 84.0128 15.534C83.3808 18.3293 82.7488 21.1247 82.1033 23.9201C82.0091 24.3347 81.8881 24.7492 81.7402 25.1513C81.1283 26.8285 79.871 27.8022 77.9682 27.821C73.8331 27.8713 69.6913 27.8399 65.5562 27.8399C65.5091 27.8399 65.4621 27.8022 65.3545 27.7519C65.6436 26.4704 65.9058 25.1638 66.2487 23.8824C66.2958 23.7128 66.7194 23.5306 66.9749 23.5306C69.8527 23.5055 72.7237 23.518 75.6014 23.5117C76.7041 23.5117 77.0403 23.2982 77.2555 22.3496C78.1497 18.4801 79.0238 14.598 79.8979 10.7284C79.9382 10.6091 79.9382 10.4835 79.9719 10.2259Z" fill="#F15429"/>
<path d="M114.31 7.07245C115.91 7.07245 117.457 7.07245 119.057 7.07245C118.721 8.58006 118.398 10.0374 118.048 11.6016C119.501 11.6016 120.832 11.6016 122.251 11.6016C121.982 12.7951 121.74 13.8944 121.484 15.0628C120.274 15.0628 119.097 15.0879 117.914 15.0502C117.41 15.0377 117.215 15.1884 117.114 15.6533C116.556 18.1848 115.964 20.7038 115.386 23.2353C115.164 24.2153 115.325 24.3912 116.408 24.3974C117.316 24.4037 118.223 24.3974 119.205 24.3974C118.936 25.6035 118.687 26.7028 118.438 27.8273C116.273 27.8273 114.155 27.9027 112.044 27.8021C110.518 27.733 109.886 26.9101 110.188 25.4905C110.948 21.8722 111.775 18.2665 112.582 14.6608C113.147 12.1355 113.732 9.61655 114.31 7.07245Z" fill="#F15429"/>
<path d="M127.34 3.90648C129.27 3.91905 130.83 5.36384 130.837 7.16042C130.843 8.97584 129.236 10.4458 127.273 10.4269C125.343 10.4144 123.79 8.96327 123.79 7.17298C123.783 5.33872 125.35 3.9002 127.34 3.90648ZM130.083 7.12901C130.07 5.69678 128.833 4.5535 127.307 4.5535C125.747 4.5535 124.523 5.7219 124.543 7.21067C124.557 8.64919 125.787 9.79246 127.313 9.79246C128.853 9.79246 130.097 8.59893 130.083 7.12901Z" fill="black"/>
<path d="M130.084 7.12897C130.097 8.5989 128.853 9.78614 127.307 9.79243C125.781 9.79243 124.55 8.64915 124.537 7.21064C124.523 5.72187 125.74 4.55347 127.3 4.55347C128.833 4.55347 130.07 5.69674 130.084 7.12897ZM128.127 7.62523C128.363 7.07244 128.692 6.639 128.672 6.21812C128.658 5.94801 128.161 5.54598 127.818 5.48944C127.152 5.37009 126.453 5.45804 125.747 5.45804C125.747 6.64528 125.747 7.7383 125.747 8.86273C126.003 8.86273 126.218 8.86273 126.507 8.86273C126.507 8.39788 126.507 7.97701 126.507 7.55613C127.253 7.44934 127.468 7.92675 127.67 8.34763C127.919 8.86901 128.268 9.06375 128.921 8.83132C128.605 8.34763 128.302 7.88278 128.127 7.62523Z" fill="white"/>
<path d="M128.127 7.62527C128.302 7.88282 128.605 8.34767 128.921 8.82508C128.268 9.05751 127.919 8.86277 127.67 8.34139C127.468 7.92051 127.253 7.4431 126.507 7.54989C126.507 7.97705 126.507 8.39164 126.507 8.85649C126.218 8.85649 125.996 8.85649 125.747 8.85649C125.747 7.73206 125.747 6.63276 125.747 5.45179C126.453 5.45179 127.152 5.37013 127.818 5.4832C128.154 5.53974 128.658 5.94805 128.672 6.21188C128.692 6.63904 128.363 7.07248 128.127 7.62527ZM126.54 5.92292C126.54 6.35008 126.54 6.61391 126.54 7.04107C127.018 6.90915 127.428 6.80865 127.818 6.67045C127.865 6.6516 127.865 6.30611 127.818 6.28726C127.428 6.14278 127.018 6.04856 126.54 5.92292Z" fill="black"/>
<path d="M126.54 5.92291C127.017 6.05483 127.428 6.14906 127.818 6.28725C127.865 6.3061 127.865 6.65159 127.818 6.67044C127.428 6.81492 127.017 6.90914 126.54 7.04106C126.54 6.6139 126.54 6.35007 126.54 5.92291Z" fill="white"/>
</svg>
