<svg width="22" height="22" viewBox="0 0 22 22" fill="none" xmlns="http://www.w3.org/2000/svg">
<path d="M8.25016 20.1667C8.75642 20.1667 9.16683 19.7563 9.16683 19.25C9.16683 18.7437 8.75642 18.3333 8.25016 18.3333C7.7439 18.3333 7.3335 18.7437 7.3335 19.25C7.3335 19.7563 7.7439 20.1667 8.25016 20.1667Z" fill="#616161" stroke="#616161" stroke-width="1.2" stroke-linecap="round" stroke-linejoin="round"/>
<path d="M18.3332 20.1667C18.8394 20.1667 19.2498 19.7563 19.2498 19.25C19.2498 18.7437 18.8394 18.3333 18.3332 18.3333C17.8269 18.3333 17.4165 18.7437 17.4165 19.25C17.4165 19.7563 17.8269 20.1667 18.3332 20.1667Z" fill="#616161" stroke="#616161" stroke-width="1.2" stroke-linecap="round" stroke-linejoin="round"/>
<path d="M0.916504 0.916656H4.58317L7.03984 13.1908C7.12366 13.6129 7.35325 13.992 7.68842 14.2618C8.02359 14.5316 8.44298 14.6749 8.87317 14.6667H17.7832C18.2134 14.6749 18.6328 14.5316 18.9679 14.2618C19.3031 13.992 19.5327 13.6129 19.6165 13.1908L21.0832 5.49999H5.49984" stroke="#616161" stroke-width="1.2" stroke-linecap="round" stroke-linejoin="round"/>
</svg>
