<svg width="16" height="16" viewBox="0 0 16 16" fill="none" xmlns="http://www.w3.org/2000/svg">
<mask id="mask0_323_304" style="mask-type:alpha" maskUnits="userSpaceOnUse" x="1" y="1" width="14" height="14">
<rect x="1.26318" y="1.26315" width="13.4737" height="13.4737" rx="6.73684" fill="#C4C4C4"/>
</mask>
<g mask="url(#mask0_323_304)">
<path d="M8 0C12.4183 0 16 3.58172 16 8C16 12.4183 12.4183 16 8 16C3.58172 16 0 12.4183 0 8C0 3.58172 3.58172 0 8 0Z" fill="#F0F0F0"/>
<path d="M1.65355 12.8705C1.02514 12.053 0.551297 11.1106 0.275391 10.0869H4.4372L1.65355 12.8705Z" fill="#0052B4"/>
<path d="M15.724 10.0869C15.4481 11.1106 14.9742 12.0529 14.3458 12.8705L11.5623 10.0869H15.724Z" fill="#0052B4"/>
<path d="M0.275391 5.91299C0.551328 4.88931 1.02517 3.94696 1.65355 3.1294L4.43711 5.91299H0.275391Z" fill="#0052B4"/>
<path d="M12.8703 14.3462C12.0527 14.9746 11.1104 15.4485 10.0867 15.7244V11.5626L12.8703 14.3462Z" fill="#0052B4"/>
<path d="M3.12915 1.65375C3.94674 1.02535 4.88909 0.551505 5.91278 0.275567V4.43732L3.12915 1.65375Z" fill="#0052B4"/>
<path d="M5.91274 15.7244C4.88906 15.4485 3.94671 14.9746 3.12915 14.3462L5.91274 11.5626V15.7244Z" fill="#0052B4"/>
<path d="M10.0867 0.275567C11.1104 0.551505 12.0527 1.02535 12.8703 1.65372L10.0867 4.43732V0.275567Z" fill="#0052B4"/>
<path d="M11.5623 5.91299L14.3458 3.12937C14.9742 3.94693 15.4481 4.88931 15.724 5.91299H11.5623Z" fill="#0052B4"/>
<path d="M15.9323 9.04347H9.04353L9.0435 15.9323C8.70191 15.9767 8.35366 16 8 16C7.64628 16 7.29809 15.9767 6.95653 15.9323V9.04353L0.0677188 9.0435C0.02325 8.70191 0 8.35366 0 8C0 7.64628 0.02325 7.29809 0.0677188 6.95653H6.95647L6.9565 0.0677185C7.29809 0.0232496 7.64628 0 8 0C8.35366 0 8.70191 0.0232182 9.04347 0.0677185V6.95647L15.9323 6.9565C15.9768 7.29809 16 7.64628 16 8C16 8.35366 15.9768 8.70191 15.9323 9.04347Z" fill="#D80027"/>
<path d="M10.0869 5.91299L13.6568 2.34312C13.821 2.50725 13.9776 2.67884 14.127 2.85671L11.0707 5.91302H10.0869V5.91299Z" fill="#D80027"/>
<path d="M5.91317 5.91299H5.9131L2.34326 2.34315C2.50739 2.17896 2.67898 2.02234 2.85686 1.8729L5.91317 4.92928V5.91299Z" fill="#D80027"/>
<path d="M5.91293 10.0869V10.087L2.34305 13.6569C2.17887 13.4928 2.02224 13.3212 1.8728 13.1433L4.92915 10.087H5.91293V10.0869Z" fill="#D80027"/>
<path d="M10.0869 10.0869L13.6568 13.6569C13.4927 13.821 13.3211 13.9777 13.1432 14.1271L10.0869 11.0707V10.0869Z" fill="#D80027"/>
</g>
</svg>
